<svg width="20" height="20" viewBox="0 0 20 20" fill="none" xmlns="http://www.w3.org/2000/svg">
<g clip-path="url(#clip0_8_107)">
<path d="M18.475 1.51678L17.6 0.758447C16.5917 -0.249886 14.9584 -0.249886 13.95 0.758447C13.925 0.783447 12.3834 2.79178 12.3834 2.79178C11.4334 3.79178 11.4334 5.36678 12.3834 6.35845L13.35 7.57512C12.1334 10.3334 10.2417 12.2334 7.57503 13.3668L6.35837 12.3918C5.3667 11.4334 3.78337 11.4334 2.7917 12.3918C2.7917 12.3918 0.783367 13.9334 0.758367 13.9584C-0.249966 14.9668 -0.249966 16.6001 0.7167 17.5668L1.55003 18.5251C2.50837 19.4834 3.80003 20.0084 5.20003 20.0084C11.5667 20.0084 20 11.5668 20 5.20845C20 3.81678 19.475 2.51678 18.475 1.52511V1.51678ZM5.20003 18.3334C4.25003 18.3334 3.37503 17.9834 2.77503 17.3751L1.9417 16.4168C1.60003 16.0751 1.58337 15.5168 1.90837 15.1584C1.90837 15.1584 3.90003 13.6251 3.92503 13.6001C4.2667 13.2584 4.8667 13.2584 5.2167 13.6001C5.2417 13.6251 6.9167 14.9668 6.9167 14.9668C7.15003 15.1501 7.45837 15.2001 7.73337 15.0918C11.1834 13.7751 13.6584 11.3084 15.0834 7.75012C15.1917 7.47512 15.15 7.15845 14.9584 6.91678C14.9584 6.91678 13.6167 5.23345 13.6 5.21678C13.2417 4.85845 13.2417 4.28345 13.6 3.92511C13.625 3.90011 15.1584 1.90845 15.1584 1.90845C15.5167 1.58345 16.075 1.59178 16.4584 1.97511L17.3334 2.73345C17.975 3.37511 18.3334 4.25011 18.3334 5.20011C18.3334 11.0001 10.1917 18.3334 5.20003 18.3334Z" fill="white"/>
</g>
<defs>
<clipPath id="clip0_8_107">
<rect width="20" height="20" fill="white"/>
</clipPath>
</defs>
</svg>
